<?xml version="1.0" encoding="UTF-8"?>
<svg id="Layer_1" xmlns="http://www.w3.org/2000/svg" width="24" height="24" version="1.1" viewBox="0 0 24 24">
  <!-- Generator: Adobe Illustrator 29.8.1, SVG Export Plug-In . SVG Version: 2.1.1 Build 2)  -->
  <path d="M12,2c-.2,0-.4.1-.6.2L3.5,6.6c-.3.2-.5.5-.5.9v9c0,.4.2.7.5.9l7.9,4.4c.2.1.4.2.6.2s.4-.1.6-.2l.9-.5c-.3-.6-.4-1.3-.5-2v-6.7l6-3.4v3.8c.7,0,1.4.1,2,.3v-5.8c0-.4-.2-.7-.5-.9l-7.9-4.4c-.2-.1-.4-.2-.6-.2M12,4.2l6,3.3-2,1.1-5.9-3.4,1.9-1M8.1,6.3l5.9,3.5-2,1.1-6-3.4,2.1-1.2M5,9.2l6,3.4v6.7l-6-3.4v-6.7M21.3,15.8l-3.6,3.6-1.6-1.6-1.1,1.2,2.8,3,4.8-4.8-1.3-1.4Z" fill="#b3b3b3"/>
</svg>
